<svg xmlns="http://www.w3.org/2000/svg" viewBox="0 0 400 260" width="400" height="260" role="img" aria-labelledby="t">
<title id="t">Ear illustration</title>
<g fill="none" stroke="#f0c878" stroke-width="3" stroke-linecap="round" stroke-linejoin="round">
<path d="M60 210 Q60 110 190 96 Q330 100 340 210 Z" fill="rgba(240,200,120,0.14)"/><path d="M60 210 L340 210" /><path d="M150 112 Q190 70 262 98 Q232 114 212 136" stroke-width="4"/><path d="M150 112 Q190 70 262 98 Q232 114 212 136 Q180 124 150 112 Z" fill="rgba(240,200,120,0.14)"/><path d="M212 136 Q250 130 300 140" stroke="rgba(240,200,120,0.55)"/><path d="M290 60 Q262 56 236 86" /><path d="M237.0 74.0 L236 86 L247.7 83.3" /><text x="200" y="242" fill="#f0c878" stroke="none" font-family="Figtree, ui-sans-serif, system-ui, sans-serif" font-size="11" font-weight="700" letter-spacing="1.5" text-anchor="middle" >THE FLAP THAT LIFTS AT THE SCORE</text>
</g>
</svg>