<svg xmlns="http://www.w3.org/2000/svg" viewBox="0 0 400 260" width="400" height="260" role="img" aria-labelledby="t">
<title id="t">Overproofed illustration</title>
<g fill="none" stroke="#f0c878" stroke-width="3" stroke-linecap="round" stroke-linejoin="round">
<path d="M80 120 Q80 214 200 216 Q320 214 320 120" /><path d="M80 120 L320 120" /><path d="M80 120 Q100 70 150 82 Q180 92 200 98 Q220 92 250 82 Q300 70 320 120 Z" fill="rgba(240,200,120,0.14)"/><path d="M150 82 Q180 92 200 98 Q220 92 250 82" stroke-width="4"/><circle cx="130" cy="150" r="7" /><circle cx="260" cy="160" r="9" /><circle cx="200" cy="180" r="6" /><path d="M200 50 L200 88" /><path d="M192.9 78.3 L200 88 L207.1 78.3" /><text x="200" y="246" fill="#f0c878" stroke="none" font-family="Figtree, ui-sans-serif, system-ui, sans-serif" font-size="11" font-weight="700" letter-spacing="1.5" text-anchor="middle" >RISEN PAST ITS PEAK AND STARTING TO SINK</text>
</g>
</svg>